<?xml version="1.0" encoding="utf-8"?>
<svg width="5065" height="1472" viewBox="0 0 3075.111 1282.82" fill="none" xmlns="http://www.w3.org/2000/svg">
  <g clip-path="url(#clip0)" style="" transform="matrix(0.9992, 0, 0, 1, 0, -191.124741)">
    <g transform="matrix(0.240735, 0, 0, -0.181964, 0.174748, 1583.782715)" fill="#000000" stroke="none" style="">
      <path d="M 1011.001 3163.998 C 986.999 3133.003 985.998 3125.001 1001.002 3080.998 C 1020.999 3023.998 1093 3010.001 1129.002 3055.999 C 1163.999 3101.002 1152.999 3148 1099.999 3175 C 1057.998 3196.999 1034.001 3193.999 1011.001 3163.998 Z"/>
      <path d="M -0.726 4926.66 L 744.849 4926.66 L 744.849 1466.404 L 2360.472 1466.404 L 2360.472 661.959 L -0.726 661.959 L -0.726 4926.66 Z" fill="#45525B"/>
      <path d="M 7688.808 3778.548 C 7877.729 3638.064 8025.568 3441.553 8132.989 3187.349 C 8240.41 2933.123 8294.079 2637.955 8294.079 2300.965 C 8294.079 1963.975 8240.41 1667.928 8132.989 1414.581 C 8025.568 1160.355 7877.729 963.887 7688.808 823.365 C 7499.886 682.898 7290.735 613.488 7060.731 613.488 C 6720.191 613.488 6460.486 755.659 6282.947 1039.946 L 6282.947 662.014 L 5596.756 662.014 L 5596.756 5182.546 L 6314.517 5182.546 L 6314.517 3592.907 C 6495.255 3857.152 6744.201 3988.436 7060.108 3988.436 C 7290.112 3988.436 7499.886 3919.032 7688.808 3778.548 Z M 7389.308 1640.34 C 7507.447 1805.098 7566.848 2025.031 7566.848 2300.965 C 7566.848 2576.898 7507.447 2797.656 7389.308 2961.59 C 7271.129 3126.293 7120.133 3208.254 6935.614 3208.254 C 6751.761 3208.254 6600.142 3126.293 6481.962 2961.59 C 6363.824 2796.832 6305.046 2576.898 6305.046 2300.965 C 6305.046 2025.031 6363.824 1804.273 6481.962 1640.34 C 6600.142 1475.637 6751.138 1393.697 6935.614 1393.697 C 7120.133 1393.697 7271.129 1475.637 7389.308 1640.34 Z" fill="#45525B"/>
      <path d="M 11107.999 7643.999 L 11080.001 7629.002 L 11080.001 6971.998 C 11080.001 6610.998 11076.001 6309.999 11072.001 6303.003 C 11068 6296.002 10990.002 6278.999 10900.002 6265.001 C 10404.001 6188.003 9911.999 6065 9352.999 5878.002 C 9203 5828.003 9073.999 5790.001 9065.001 5793.001 C 9052 5799.003 9050.002 5861.999 9050.002 6325.002 C 9050.002 6848.001 9050.002 6850.002 9030 6850.002 C 9018 6850.002 8996 6843 8979.999 6834.999 L 8949.999 6820.001 L 8948.001 6277.998 L 8945.002 5737.001 L 8730.002 5651.001 C 8155.001 5418.999 7537.999 5122.001 6932.001 4786 C 6837 4733.001 6752.999 4690.003 6745.999 4690.003 C 6722.999 4690.003 6718.002 4718.003 6713 4867 C 6710.001 4943.998 6703.999 5014.001 6699.002 5021.003 C 6692.999 5030.999 6684.002 5031.999 6662.999 5024.003 L 6635.002 5015.001 L 6630 4818.001 C 6627.001 4706.001 6620.999 4617 6615.001 4611.999 C 6585.001 4583.999 5360.999 3900.001 5341.002 3900.001 C 5325.001 3900.001 5324 3913.003 5288.999 4295.002 C 5267 4539.001 5254.002 4649 5243.999 4659.002 C 5233 4670.999 5159.001 4652.001 4720 4524.998 C 4325.001 4410.003 4209.999 4373.001 4209.999 4360.998 C 4211 4352.002 4230.001 4134.003 4254.002 3875.001 C 4277.999 3617 4295.998 3400.001 4292.999 3392.999 C 4280.999 3361.999 3677.999 3144 3344.998 3050.003 L 3235.999 3020.003 L 3195 3049.003 C 3091.001 3123.001 2971.002 3166.999 2842.998 3177.001 C 2769 3182.002 2759.001 3185.002 2755.001 3204 C 2752.002 3216.003 2739 3312 2725.001 3418.999 L 2699.999 3611.999 L 2801.002 3718.998 C 3035.999 3966.003 3143 4163.003 3196.001 4444.999 C 3219.001 4565 3222 4879.002 3201.999 5004.999 C 3171.002 5198.999 3114.002 5357.003 3031.999 5476.999 C 2959.998 5583.999 2898.001 5624.001 2841 5601.002 C 2755.998 5565 2604.998 5336.999 2544.999 5155.002 C 2465.999 4912.003 2456 4609.998 2510.998 4170.999 L 2533.999 3991.002 L 2505 3959.001 C 2487.998 3941.998 2393.998 3855.003 2295.002 3765.002 C 2086 3576.003 1884.999 3373.001 1816.002 3279.999 C 1727 3160.003 1673.999 3036 1642.998 2875.001 L 1624.999 2785 L 1423.001 2781.999 L 1219.998 2779.999 L 1219.998 2825.002 C 1219.998 2859.998 1214 2877.002 1196.001 2895 C 1163.002 2928.001 1125.998 2936.002 1095.002 2915.998 C 1072.998 2902.001 1069.999 2891.999 1069.999 2845.001 C 1069.999 2798.003 1067 2790.001 1050.999 2790.001 C 1023.001 2790.001 1012.999 2808.999 1007 2876.002 C 993.002 3041.001 853.998 3160.003 676.999 3160.003 C 520 3159.003 392.001 3068.001 356.999 2930.001 C 348.002 2896 336.998 2874.001 327 2872.001 C 318.999 2870 246.002 2880.002 165 2894 C -5 2924 0.001 2924 0.001 2906.002 C 0.001 2897 46.999 2884.998 166.001 2863.999 C 333.002 2834.999 374.998 2821.002 355.001 2801.003 C 346 2792.001 142 2826.003 27.999 2855.003 C 5.999 2860.999 0.001 2858.998 0.001 2847.001 C 0.001 2829.998 46.999 2818.001 268.998 2773.998 C 388 2749.999 419.998 2739.002 419.998 2718.998 C 419.998 2703 374.001 2709.002 193.999 2749.999 C -7.999 2796.002 0.001 2794.002 0.001 2776.998 C 0.001 2758 288.999 2691.998 765 2602.002 C 796.001 2597.001 804.998 2590 804.998 2575.002 C 804.998 2562 797.002 2553.998 784 2551.998 C 759.002 2548.003 408.002 2624.001 170.998 2684.002 C 31.002 2718.998 0.001 2723.999 1.999 2712.002 C 5.999 2693.999 208.002 2637.998 552.999 2561 C 672.998 2534 774.001 2510.001 777.001 2507 C 789.998 2493.003 769 2469.998 743.001 2469.998 C 699.999 2469.998 99.002 2624.001 12.999 2657.002 C 5.999 2660.003 0.001 2655.002 0.001 2647 C 0.001 2635.998 26.001 2623.001 82 2606.003 C 212.002 2567.001 403 2514.001 540.001 2480 C 733.999 2432.002 740.001 2430.001 740.001 2418.999 C 740.001 2403.001 686 2328.998 612.999 2242.003 C 525.002 2138.999 514.002 2122.001 528.001 2107.998 C 544.999 2091 581.001 2119 729.002 2267.002 L 861.999 2401.001 L 1088.999 2356.003 C 1212.999 2330.998 1393.999 2299.003 1490 2285 C 1585.998 2271.003 1679.001 2257 1695.999 2253.999 C 1721.998 2249.999 1736.001 2236.001 1780 2168.999 C 1916 1960.002 2124 1816.001 2365 1765.002 C 2454.999 1745.998 2672.998 1742.003 2755.001 1759 C 2792 1766.002 2808.001 1766.002 2816.002 1757 C 2834.001 1737.002 2892.999 1235.001 2886 1162.998 C 2869.999 1012.001 2808.998 898.001 2707.999 829.998 C 2630.001 777.999 2565 760.001 2461.002 759.001 C 2386.999 759.001 2369 762.001 2321.001 787.001 C 2282 806.999 2264.001 822.002 2261.999 838 C 2258.999 855.003 2264.001 859.999 2282 859.999 C 2370.001 859.999 2479.001 930.001 2521.998 1013.001 C 2612.999 1191.998 2467 1414.998 2260.001 1413.998 C 2099.002 1411.998 1982.999 1299.003 1971.999 1133.998 C 1963.002 999.999 1999 903.002 2097 800.003 C 2197.999 691.998 2320 639.999 2469.999 639.999 C 2726.999 639.999 2935 800.003 2986.002 1038.001 C 3007 1139.999 3003 1272.998 2970.001 1527.999 C 2952.999 1656.002 2940.001 1771.003 2940.001 1784 C 2940.001 1802.998 2952.002 1812 3004.001 1833.999 C 3152.002 1897 3305 2026.999 3380 2155.002 L 3416.002 2215.003 L 3635.002 2237.002 C 4299.999 2303.998 4916 2434.002 5782.002 2690.998 C 5941.999 2738.002 5996 2748.998 5988 2733.001 C 5986.999 2728 5969 2693.999 5950 2655.002 C 5918.002 2591 5914.999 2578.003 5914.999 2497.998 C 5914.999 2417.999 5917.001 2409.003 5944.998 2368 C 6069.002 2191.998 6360.999 2220.998 6570.001 2429.001 C 6615.001 2473.999 6654.999 2524.998 6669.002 2552.998 C 6692.002 2605.003 6709 2739.002 6710.001 2882.003 L 6710.001 2959.002 L 6763.001 2972.999 C 6952.999 3026.998 7094 3059.999 7102.001 3051.998 C 7107.002 3047.002 7107.002 3031.999 7099.999 3016.002 C 7087.001 2982.001 7087.001 2940.003 7099.002 2940.003 C 7114.998 2940.003 7140.001 2969.998 7164.999 3019.002 C 7178.001 3045.002 7194.999 3071.002 7201.999 3077.003 C 7233 3104.003 7669.002 3187.003 7970.001 3223.999 C 8301 3265.002 8449 3274.003 8815 3274.003 C 9179.999 3274.998 9314.998 3267.002 9645 3224.999 C 10656 3097.001 11656 2720.998 12620.999 2106.003 L 12800 1992.003 L 12800 2134.003 L 12800 2275.998 L 12623.001 2382.003 C 12202.003 2634.003 11853.001 2807.999 11431.001 2973.999 C 10628.999 3291.001 9797.001 3448.999 8928 3450 C 8835.002 3450 8760.002 3454 8760.002 3459.001 C 8760.002 3464.002 8792 3494.003 8830 3524.998 C 8869.002 3556.999 8922.999 3611.999 8949.999 3649.001 C 8996 3710.002 9039.999 3801.003 9039.999 3834.999 C 9039.999 3843 9047.999 3854.003 9058.002 3858.998 C 9068.001 3863.999 9186.002 3872.001 9321.001 3876.001 C 10261.001 3902.001 11224.999 3718.998 12129.001 3343.001 C 12302 3272.003 12578.001 3142.999 12698 3079.003 C 12749.002 3051.998 12793.001 3029.999 12794.999 3029.999 C 12798.002 3029.999 12800 3092 12800 3167.999 L 12800 3306.999 L 12668 3370 C 12398.403 3498.333 12127.201 3608.323 11849.781 3701.506 C 11547.865 3802.917 11238.586 3884.422 10915.999 3947.999 C 10866.999 3958.001 10824.999 3970.998 10823.001 3976.999 C 10820.999 3983.001 10854.002 4012.001 10898 4043.002 C 11045 4146 11145.999 4279.999 11170.001 4408.002 C 11185.001 4483.001 11171.999 4481 11400 4441.003 C 11823.001 4367 12262.002 4246.998 12654.002 4099.002 C 12725.001 4072.002 12787.003 4050.003 12792 4050.003 C 12797.001 4050.003 12798.999 4110.999 12798.002 4187.003 L 12794.999 4323.002 L 12730.999 4347.001 C 12601.001 4395 12085.999 4541.001 12085.999 4541.001 C 11975.999 4568.001 11884.001 4593 11881.002 4595.001 C 11879 4598.001 11903.999 4657.002 11937.002 4726.999 C 12004.001 4868 12031.001 4947.999 12061.001 5089 C 12071 5139.999 12080.001 5184.002 12080.001 5186.002 C 12080.001 5206.001 12473.002 5132.003 12773 5054.998 L 12801.001 5048.002 L 12798.002 5186.002 L 12794.999 5325.002 L 12715.002 5342 C 12594.999 5369 12277.002 5426 12178.001 5440.003 L 12090 5452 L 12080.001 5494.003 C 12075 5516.002 12062.999 5554.998 12054.002 5580.003 C 12032.999 5637.998 12032.999 5659.002 12054.999 5749.998 C 12066.999 5800.003 12073.999 5871 12075 5960.001 L 12077.002 6095.001 L 12196 6092 C 12298 6089 12567.001 6066 12748.001 6044.002 L 12800 6037 L 12800 6173 L 12800 6308.999 L 12758 6315 C 12639.999 6330.003 12483 6341 12275 6346.001 C 12149.002 6349.001 12035.001 6353.002 12023.001 6356.003 C 12007 6359.003 11986.002 6388.998 11945.999 6466.003 C 11857.001 6637.003 11792 6719.003 11560.002 6949.999 C 11322.999 7187.002 11265.001 7255.999 11217.999 7357.003 C 11189.001 7417.999 11186.002 7436.002 11182.001 7542.001 C 11178.001 7655.001 11177 7660.002 11156.002 7660.002 C 11145.002 7659.002 11122.999 7652.001 11107.999 7643.999 Z M 11329.001 6801.003 C 11393.001 6763.001 11477.999 6708.001 11518.998 6679.001 C 11654.002 6583.998 11847.002 6382.002 11824.002 6360.998 C 11819.001 6356.003 11725.001 6347.001 11615 6341 L 11415 6329.003 L 11392 6357.003 C 11336.001 6424 11254.999 6557.999 11223.001 6637.998 C 11175.999 6752.999 11164.999 6870 11201.001 6870 C 11207 6870 11265.001 6838.999 11329.001 6801.003 Z M 11915.999 6100.002 C 11947 6100.002 11949.002 6098.001 11959.001 6050.003 C 11975.999 5971.998 11974.001 5790.001 11956.002 5790.001 C 11949.002 5790.001 11934.999 5802.003 11925.001 5816 C 11915.002 5831.003 11854.002 5898 11789.001 5965.002 C 11722.999 6031.999 11669.999 6090 11669.999 6093 C 11669.999 6101.002 11783.999 6108.003 11839.002 6104.002 C 11862.999 6102.002 11898 6100.002 11915.999 6100.002 Z M 11432.002 5937.002 C 11660 5787 11764.999 5695.999 11839.999 5582.998 C 11910.001 5479 11909 5475.999 11808.001 5483.001 C 11724 5490.002 11368.999 5509 11250.001 5513.001 L 11185.001 5515.001 L 11182.001 5784 C 11179.999 6055.998 11183.002 6089 11216.001 6076.002 C 11223.001 6073.002 11320 6011.001 11432.002 5937.002 Z M 11073.999 6044.002 C 11083 6021.003 11081.002 5537 11072.001 5523.003 C 11066.002 5514.001 11003 5507 10869.002 5499.998 C 10318.999 5470.998 9866.999 5402.001 9276.001 5258 C 9106.001 5217.003 9065.998 5210.002 9058.999 5220.998 C 9054.002 5229 9050.002 5315 9050.002 5412.003 C 9050.002 5584.999 9050.999 5590 9073.002 5604.003 C 9101 5622.001 9318.002 5692.003 9570.001 5765.001 C 9932 5870 10337.999 5961.002 10680.001 6014.001 C 11000 6064 11065.001 6069.001 11073.999 6044.002 Z M 8949.999 5371 C 8949.999 5261.001 8945.999 5179.001 8940.001 5175 C 8935 5172 8845 5142.999 8741.002 5109.998 C 8198.999 4940.003 7662.999 4726.999 7067 4445.999 C 7001.999 4414.998 6940.001 4389.999 6929.998 4389.999 C 6907.999 4389.999 6790.002 4535 6790.002 4562 C 6790.002 4580.998 6811 4593 7155.001 4773.003 C 7555.001 4982 8022 5201 8405.002 5358.003 C 8605.999 5440.003 8921.001 5558.999 8937.999 5559.999 C 8947 5559.999 8949.999 5516.002 8949.999 5371 Z M 11073.999 5264.001 C 11084.998 5234.001 11081.002 4785 11069.002 4773.003 C 11061.001 4765.001 11046.001 4767.002 11013.999 4779.999 C 10892.999 4831.998 10696.999 4832.998 10545.002 4783 C 10462.002 4754.999 10439.999 4751.999 10260 4746.003 C 9884.002 4733.001 9589.001 4706.001 9242.001 4653.001 C 9092.999 4630.002 9067 4628.002 9058.999 4640.999 C 9054.002 4649 9050.002 4735.001 9050.002 4831.998 C 9050.002 4979 9053.001 5011.001 9065.998 5024.003 C 9073.999 5032.999 9084.999 5040.001 9088.999 5040.001 C 9092.999 5040.001 9175.999 5057.999 9273.002 5080.003 C 9639.002 5162.003 10032.999 5223.999 10385.001 5254.999 C 10615 5274.003 10646.001 5275.998 10876.001 5277.998 C 11043.002 5279.999 11069.002 5277.998 11073.999 5264.001 Z M 11435.002 5270.002 C 11620.002 5258 11936.001 5223.999 11952.002 5214.002 C 11966 5205.001 11956.999 5072.002 11934.999 4966.003 C 11926.002 4922 11898 4824.002 11873.002 4747.998 C 11834 4627.002 11826 4609.998 11807 4609.998 C 11794.999 4609.998 11726.999 4621 11654.999 4635.003 C 11583.999 4648 11453.001 4668.999 11364.999 4681.001 C 11277.002 4692.998 11198.999 4708.001 11193.001 4713.002 C 11183.002 4719.998 11179.999 4787 11179.999 4985.001 C 11179.999 5130.002 11183.002 5254.999 11186.002 5264.001 C 11193.001 5282.999 11217.002 5284 11435.002 5270.002 Z M 2986.999 5174 C 3020.002 5153.001 3041 5117 3060 5047.002 C 3125.001 4813 3063 4563 2880.999 4325.002 C 2820.002 4245.003 2669.999 4090 2654.002 4090 C 2614 4090 2593.998 4543.002 2624.999 4740.002 C 2664.001 4982 2756.999 5147 2876.998 5184.002 C 2926.999 5198.999 2950 5196.999 2986.999 5174 Z M 8948.001 4804.998 C 8948.998 4701 8947 4612.999 8943 4608.998 C 8937.999 4605.003 8862.002 4584.999 8773 4566.001 C 8328 4469.003 7846.001 4325.002 7382.002 4151.001 C 7224.999 4093 7179.999 4080.998 7179.999 4098.001 C 7179.999 4102.002 7145.999 4142.999 7105 4188.003 C 7064 4233.001 7030 4276.998 7030 4284 C 7030 4306.999 7537.999 4525.998 7933.002 4674 C 8275 4802.003 8903.002 5003.999 8935 4996.003 C 8941.002 4994.003 8945.999 4919.999 8948.001 4804.998 Z M 10154 4531.999 C 10156.999 4526.998 10145.999 4503.999 10129.001 4479 C 10065.001 4383.003 10041 4269.002 10060 4160.003 C 10066.999 4124.001 10073.002 4085.999 10073.002 4076.003 C 10075 4056.999 10065.001 4056.999 9735 4058.999 C 9548.001 4059.999 9321.001 4055.999 9231.001 4050.003 C 9096.999 4041.001 9065.001 4041.001 9058.999 4052.003 C 9047.999 4069.001 9047.999 4420.999 9058.999 4438.003 C 9084.999 4480 10130.999 4569.001 10154 4531.999 Z M 6630 4358.003 C 6630 4302.998 6624.999 4249.999 6620.002 4239.002 C 6607 4216.003 5396 3607.003 5371.999 3611.999 C 5354 3616 5337.002 3697.999 5341.999 3758 C 5344.998 3791.001 5350 3794.002 5620.002 3939.003 C 5771.002 4021.003 6054.999 4175 6250.002 4283 C 6513 4428.001 6608.001 4475.999 6616.999 4468.003 C 6626 4461.002 6630 4426 6630 4358.003 Z M 5223.001 4433.002 C 5226 4416.999 5238.001 4287 5250.999 4141.999 C 5268.001 3953 5271 3874.001 5264.001 3861.999 C 5245 3830.998 4408.001 3419.999 4363.999 3419.999 C 4356.002 3419.999 4348.999 3437.003 4346 3463.002 C 4332.001 3566.001 4279.001 4191.998 4283.001 4196.999 C 4286 4200 4397.999 4234.001 4532.001 4272.003 C 4665.999 4311 4865.002 4368 4974.998 4400.001 C 5084.999 4432.002 5185.001 4459.001 5196 4459.001 C 5212.001 4460.002 5219.001 4453 5223.001 4433.002 Z M 8948.001 4297.002 C 8949.999 4203 8947 4169.999 8939 4169.999 C 8932 4169.999 8896.999 4182.002 8861.001 4196.999 C 8809.999 4217.003 8771.999 4223.999 8695.001 4228 C 8569 4234.001 8499.998 4217.003 8364.999 4151.001 C 8250.002 4094.001 8158 4023.003 8095.001 3941.998 L 8050.999 3885.998 L 7843.002 3833.999 C 7729.001 3805.999 7571.002 3764.001 7492.002 3741.002 C 7412.998 3718.003 7345.002 3702 7341.002 3705.001 C 7336.001 3707.001 7329.998 3733.001 7326.002 3762.001 C 7322.002 3791.001 7307.002 3848.001 7292.999 3888.999 C 7269.999 3957.001 7269.002 3965.003 7284.002 3974.999 C 7332.001 4011.001 8067 4239.002 8366.001 4311 C 8545.002 4354.003 8911.999 4430.001 8930.002 4427.001 C 8941.999 4425 8945.999 4401.001 8948.001 4297.002 Z M 6895.001 4163.998 C 6948.999 4135.003 7039.999 4066.001 7053.001 4045.002 C 7057.001 4037 7054.999 4027.999 7047.999 4023.003 C 7024.002 4008 6737.002 3889.999 6722.999 3889.999 C 6711.999 3889.999 6710.001 3914.998 6711.999 4017.002 L 6714.998 4144 L 6755.001 4166.999 C 6807 4195.999 6834.001 4195.999 6895.001 4163.998 Z M 6624.002 4074.002 C 6635.999 4044.002 6630 3863.999 6618 3848.001 C 6601.002 3827.003 5426 3309.999 5394.999 3309.999 C 5379.999 3309.999 5366.001 3410.003 5371.999 3468.003 C 5375.002 3499.999 5378.998 3502.999 5579.999 3598.001 C 5692.999 3651.001 5965 3783 6185.001 3891.999 C 6405.002 3999.999 6592 4089 6601.002 4089 C 6609.999 4090 6620.999 4082.998 6624.002 4074.002 Z M 7182.002 3859.998 C 7215.001 3795.002 7245 3681.001 7233 3668.999 C 7224.999 3661.003 6775.002 3501.999 6732.001 3493.003 L 6709 3488.002 L 6711.999 3621.001 L 6714.998 3753.999 L 6920 3836.999 C 7033 3882.003 7132.001 3917.999 7140.001 3916.999 C 7148.002 3915.998 7167.002 3889.999 7182.002 3859.998 Z M 5284.002 3742.002 C 5286 3738.002 5291.001 3697.999 5295.001 3653.001 L 5303.002 3571.002 L 5204.001 3524.003 C 4824.002 3346.001 4396.001 3169.999 4380 3186.002 C 4374.998 3190.998 4369 3224.999 4367.999 3260.001 C 4365 3334.999 4337.999 3316.001 4605.002 3434.002 C 4710.001 3480 4899.002 3570.001 5024.999 3633.003 C 5253.001 3747.998 5273.999 3757 5284.002 3742.002 Z M 6630 3580.998 C 6630 3510.001 6626 3468.998 6618 3458.001 C 6611 3450 6369 3355.003 6080.002 3246.998 C 5430.001 3003.999 5411 2997.998 5397.999 3001.999 C 5382.999 3007 5386.999 3181.001 5403 3196.999 C 5409.999 3204 5507.002 3246.998 5620.002 3293.002 C 5733.002 3340 6000.001 3452 6215.001 3543.002 C 6499.999 3663.998 6608.001 3706.001 6616.999 3697.999 C 6626 3691.003 6630 3655.002 6630 3580.998 Z M 7986.002 3642.999 C 7989.001 3569.001 8015 3507 8064 3453 C 8101 3411.003 8109 3389.999 8088.002 3389.999 C 8030 3389.999 7543 3301.998 7364.999 3259 C 7321.001 3248.998 7282 3244.003 7277.002 3248.998 C 7272.001 3253.999 7277.002 3287 7288.999 3323.002 C 7299.999 3359.998 7314.998 3426 7322.002 3470.998 C 7329.998 3523.003 7340.001 3554.998 7350 3559.999 C 7397.998 3583.999 7913 3710.002 7954 3707.001 C 7982.002 3705.001 7982.998 3703 7986.002 3642.999 Z M 2612.002 3395 C 2643.999 3166.999 2643.999 3161.003 2623.001 3154.002 C 2612.999 3150.001 2567.002 3129.002 2520 3107.003 C 2453.998 3076.003 2419.001 3051.003 2363.999 2996.003 C 2325.001 2957.001 2284.002 2907.002 2272.001 2884.003 C 2261.002 2861.999 2245.001 2839 2238.001 2831.998 C 2216.999 2815.001 2001.002 2795.002 1988 2807.999 C 1961 2834.999 2102.001 3063 2231.002 3204 C 2306.001 3286 2570.998 3521.003 2584 3517.002 C 2589.998 3515.002 2603 3460.002 2612.002 3395 Z M 7238.001 3463.002 C 7231.002 3396 7193.001 3247.998 7177 3225.999 C 7167.999 3215.003 6744.998 3090 6716 3090 C 6711.999 3090 6710.001 3148 6710.001 3219.998 C 6710.001 3344.001 6710.998 3350.002 6733.002 3361.999 C 6767.002 3381.003 7192 3518.002 7219.001 3519.002 C 7242.001 3520.003 7243.002 3518.002 7238.001 3463.002 Z M 5314.002 3438.003 C 5329.002 3368 5331 3281.999 5318.002 3274.003 C 5310.998 3269.002 5271 3265.002 5230.001 3264.001 C 5143 3263.001 5098.001 3244.003 5022 3176 C 4981.001 3140.999 4944.998 3123.001 4808.998 3073.002 C 4571.002 2986.001 4420.999 2937.003 4405.999 2942.998 C 4386.999 2951 4374.998 3069.001 4392 3084.999 C 4399 3091 4475 3123.001 4559.998 3155.002 C 4726.999 3218.003 5053.001 3354.003 5190.002 3417.999 C 5290 3465.003 5307.999 3468.003 5314.002 3438.003 Z M 6624.002 3303.998 C 6635.999 3274.003 6631.002 3083.999 6618 3068.001 C 6611 3059.999 6484.002 3016.002 6335 2969.998 C 6186.999 2925 5950 2852.002 5809.999 2807.999 C 4884.002 2521.003 4322.999 2391.999 3639.999 2308.999 C 3540.998 2297.002 3457.001 2290.001 3454.002 2293.002 C 3446.002 2301.003 3461.002 2386.998 3473.999 2405.002 C 3480.999 2415.999 3525.998 2427.001 3615.001 2440.998 C 3687.001 2452 3804.001 2471.999 3876.998 2485.001 C 3975.999 2503.999 4015.001 2508 4035.002 2499.999 C 4094 2478 4178.002 2495.003 4248 2544.002 C 4269.002 2557.999 4322.999 2578.003 4374.998 2590 C 4503.002 2620 4743 2685.002 4899.999 2732.001 C 4974.001 2755 5068.001 2775.998 5107.002 2779.999 C 5163.999 2785 5190.002 2794.002 5231.999 2820.001 C 5261.001 2838 5379.999 2884.998 5495.001 2925 C 5699.999 2996.003 6445 3262.001 6544.998 3300.003 C 6607 3324.002 6616.002 3324.002 6624.002 3303.998 Z M 4314.002 3229 C 4318.999 3189.003 4317.001 3163.998 4310.001 3155.002 C 4286 3127.002 3456 2870 3388 2870 C 3370.001 2870 3310.001 2937.003 3310.001 2957.001 C 3310.001 2963.002 3318.002 2970.998 3328.001 2973.999 C 3652 3067.001 3967.002 3170.999 4165 3248.998 C 4303.999 3303.998 4306.001 3303.998 4314.002 3229 Z M 724 3066.001 C 769 3031.999 804.001 2971.999 826.001 2891.999 C 849.001 2808.999 844 2804.999 737.999 2816.001 L 654.999 2825.002 L 637 2862.999 C 616.999 2905.002 567.999 2940.003 528.001 2940.003 C 513.001 2940.003 484.999 2932.002 465.002 2923 C 367.002 2876.002 419.001 3019.002 518.999 3070.001 C 593.002 3107.998 671 3107.003 724 3066.001 Z M 4332.001 3016.002 C 4343 2966.003 4332.001 2954.001 4288.999 2968.998 C 4197.002 3000.999 4087.001 2960.002 3999 2860.999 C 3947.001 2802.998 3939 2798.003 3869.002 2779.999 C 3766.001 2752.999 3480.999 2690.003 3465.002 2690.003 C 3450.002 2690.003 3416.002 2774.998 3423.001 2794.002 C 3426 2801.003 3507.999 2827.003 3612.002 2853.003 C 3797.999 2901.001 4098.001 2989.002 4224.999 3034 C 4264.001 3048.003 4302.001 3057.999 4310.001 3056.999 C 4318.002 3055.999 4328 3038.001 4332.001 3016.002 Z M 4931 2950 C 4933.999 2919.999 4940.001 2883.003 4944.001 2868 C 4952.002 2842 4951.001 2841 4838.001 2806.999 C 4584 2728 4393.001 2677.001 4381.001 2684.002 C 4377 2687.003 4381.001 2723.999 4390.002 2767.002 L 4405.999 2845.001 L 4646.002 2926 C 4777 2970.998 4894 3007 4905 3006 C 4922.002 3005 4925.998 2996.003 4931 2950 Z M 6615.001 2920.999 C 6618 2915.998 6616.002 2909.003 6609.999 2905.002 C 6605.002 2902.001 6600.001 2906.002 6600.001 2913.998 C 6600.001 2932.002 6605.999 2935.002 6615.001 2920.999 Z M 2959.998 2824.002 C 2982.999 2815.001 2999 2801.998 2997.002 2796.002 C 2993.001 2784 2903.999 2762.001 2849.001 2761.001 C 2815.001 2760.001 2812.002 2762.001 2805.999 2795.002 C 2801.999 2815.001 2801.999 2834.999 2805.999 2841 C 2815.001 2856.003 2906.001 2845.001 2959.998 2824.002 Z M 2687.998 2776.998 C 2691.998 2734.001 2691.001 2734.001 2600.001 2720.998 C 2521.001 2710.002 2502.001 2720.998 2543 2753.999 C 2582.999 2786 2652 2821.002 2669.999 2817.001 C 2680.002 2816.001 2686 2801.003 2687.998 2776.998 Z M 778.002 2773.998 C 831.002 2768.002 853.001 2748.998 833 2729 C 822 2718.003 650.999 2736.001 635.999 2750.999 C 616.999 2768.002 652 2791.001 688.999 2786 C 709.001 2783 748.999 2777.999 778.002 2773.998 Z M 2209.999 2731 C 2209.999 2715.003 2203 2696.999 2196.001 2690.003 C 2186.999 2683.002 2132.001 2676 2065.999 2673 L 1950 2666.999 L 1950 2696.999 C 1950 2747.998 1967.002 2752.999 2148.002 2758 L 2209.999 2760.001 L 2209.999 2731 Z M 1407 2734.001 C 1604.001 2727 1619.998 2724.999 1626 2708.001 C 1629 2697.999 1626 2682.002 1619.001 2674 C 1605.999 2658.002 1552.999 2659.003 1230.001 2681.001 C 1019.001 2694.999 1010 2695.999 1010 2727 L 1010 2752.999 L 1102.998 2746.998 C 1152.999 2743.003 1291.001 2737.002 1407 2734.001 Z M 3136.001 2706.001 C 3169 2673 3178.999 2647 3162.001 2635.998 C 3144.002 2625.001 2846.999 2589 2839.999 2597.001 C 2824.999 2613.999 2819.001 2678.001 2831.999 2687.003 C 2842.001 2692.998 2926.999 2710.002 3094 2739.002 C 3098.001 2739.002 3117.001 2724.999 3136.001 2706.001 Z M 699.999 2700 C 736.001 2693.999 780 2687.003 797.999 2684.002 C 820.999 2681.001 830.001 2674 830.001 2661.003 C 830.001 2650.001 823.998 2639.999 816.999 2636.998 C 797.999 2630.002 540.001 2676 527 2689.003 C 520 2695.999 521.001 2701 531 2704.001 C 539 2706.001 551.998 2711.002 559.999 2713.002 C 576 2718.998 592.001 2717.003 699.999 2700 Z M 3925.001 2662.998 C 3939 2568.001 3950 2578.003 3801.999 2548.003 C 3633 2514.001 3491.998 2494.003 3484.002 2502.999 C 3480.002 2507 3475 2531.999 3472.001 2558.999 C 3465.999 2620 3463 2618 3645.001 2655.002 C 3717.001 2668.999 3800.001 2687.003 3830.001 2694.999 C 3917.001 2716.003 3918.002 2716.003 3925.001 2662.998 Z M 2707.999 2622.001 C 2710.002 2594.001 2706.998 2578.003 2698.001 2575.002 C 2691.001 2573.002 2627.002 2566.001 2555.998 2560 C 2404.998 2548.003 2395 2551.998 2424.999 2607.998 C 2445.001 2645 2446.002 2645 2535 2656.002 C 2585.001 2662.998 2642.998 2666.999 2665.002 2665.999 C 2705 2664.998 2705 2664.998 2707.999 2622.001 Z M 1224.999 2639.999 C 1297 2634.003 1416.002 2626.002 1490 2622.001 L 1624.999 2614.999 L 1627.999 2582.999 L 1631.002 2550.003 L 1578.002 2550.003 C 1517.001 2550.003 1370.998 2562 1155.001 2585.999 C 997.002 2603.003 965 2614.999 989.998 2646 C 1001.002 2658.002 1015.001 2661.003 1050.002 2656.002 C 1075 2653.001 1154 2646 1224.999 2639.999 Z M 2188 2621.001 C 2196.001 2616 2200.001 2599.002 2197.999 2579.003 L 2195 2545.002 L 2067 2542.001 L 1939 2539.001 L 1941.999 2577.003 L 1944.999 2614.999 L 2054.999 2621.001 C 2116 2624.001 2167.002 2627.002 2170.001 2628.002 C 2173 2629.002 2181.001 2626.002 2188 2621.001 Z M 1120 2550.003 C 1200.001 2540.001 1346 2523.998 1445.001 2515.002 C 1544.002 2506 1631.002 2496.998 1638.001 2495.003 C 1644 2493.003 1650.002 2477 1650.002 2460.002 C 1650.002 2433.002 1646.999 2430.001 1618 2430.001 C 1524 2430.001 971.999 2507 952.999 2522.003 C 944.002 2528.999 943.001 2538.001 951.001 2551.003 C 963.002 2574.002 944.999 2574.002 1120 2550.003 Z M 3230.001 2545.002 C 3253.001 2483.001 3253.001 2470.998 3229 2461.002 C 3216.002 2457.001 3131 2445.999 3039.999 2437.003 C 2914.999 2425 2872.001 2424 2864.001 2433.002 C 2849.001 2447.999 2838.998 2502.999 2848 2517.002 C 2854.999 2526.999 3103.999 2566.001 3182.999 2569.001 C 3215.001 2570.002 3222 2566.001 3230.001 2545.002 Z M 2731 2467.003 C 2733.999 2444.999 2732.001 2426.001 2725.998 2421 C 2720 2415.999 2649.001 2409.003 2567.002 2405.002 C 2401.999 2397 2389.998 2400.001 2389.998 2456.001 C 2389.998 2486.001 2393.002 2490.002 2423.001 2495.003 C 2465.002 2501.999 2567.999 2507 2654.999 2506 L 2725.001 2505 L 2731 2467.003 Z M 2220.002 2470.998 C 2224.999 2460.002 2230.001 2440.003 2230.001 2426.001 L 2230.001 2400.001 L 2116 2400.001 C 2053.001 2400.001 1989.998 2404.002 1977.001 2409.003 C 1950 2418.999 1936.001 2462.002 1952.999 2479 C 1959.998 2486.001 2014 2490.002 2087.001 2490.002 C 2197.999 2490.002 2209.999 2488.002 2220.002 2470.998 Z M 1117.001 2451 C 1215.001 2435.002 1358 2413.998 1435.002 2405.002 C 1682 2376.002 1672.998 2378.002 1684.002 2347.001 C 1690 2329.998 1690 2316.001 1684.002 2311 C 1665.999 2293.002 921.998 2413.998 897 2439.003 C 884.999 2451 905 2480 925.998 2480 C 933.002 2480 1019.998 2467.003 1117.001 2451 Z M 3250.002 2347.001 C 3250.002 2272.003 3246.002 2270.003 3061.002 2259 C 2941.999 2252.999 2892.999 2252.999 2883.001 2261.001 C 2876.001 2268.002 2869.999 2292.001 2869.999 2316.001 C 2869.999 2355.003 2872.998 2359.998 2892.999 2360.999 C 2905 2361.999 2974.001 2368 3045.001 2375.001 C 3117.001 2381.003 3192 2387.998 3212.999 2387.998 L 3250.002 2389.999 L 3250.002 2347.001 Z M 2291.001 2318.001 C 2320 2286 2326.999 2265.002 2313.001 2257 C 2307.999 2255 2239.999 2257 2159.998 2261.001 C 2030.001 2269.002 2012.999 2272.003 1997.999 2291.001 C 1988 2302.998 1980 2321.002 1980 2330.998 C 1980 2349.002 1989.001 2350.002 2121.001 2350.002 L 2261.002 2350.002 L 2291.001 2318.001 Z M 2752.002 2310 C 2765 2249.999 2765 2249.999 2605.999 2249.999 L 2460 2249.999 L 2438.998 2291.001 C 2422 2325.003 2420.999 2333.999 2431.999 2341 C 2438.998 2346.001 2512 2349.002 2595 2347.001 L 2744.002 2345.001 L 2752.002 2310 Z M 2314.999 2201 C 2378.002 2200 2393.998 2195.999 2475 2155.002 C 2525.001 2129.002 2585.001 2106.003 2608.998 2103.003 C 2663 2096.001 2657.998 2108.998 2595 2139.999 C 2518.999 2177.001 2533.999 2189.998 2654.002 2189.998 C 2712 2189.998 2762.001 2186.003 2765 2180.001 C 2767.999 2175 2778.002 2113.999 2786.999 2044.002 C 2804.998 1899.001 2808.001 1905.002 2721.001 1894 C 2582.999 1877.002 2420.002 1908.002 2284.999 1978 C 2212.002 2016.002 2050.002 2163.998 2050.002 2192.998 C 2050.002 2215.003 2060.001 2216.003 2158 2208.001 C 2205.999 2205.001 2276.998 2201 2314.999 2201 Z M 3200.001 2186.003 C 3200.001 2161.003 3124 2069.001 3068.001 2027.999 C 2997.002 1973.999 2929.999 1942.998 2920 1961.002 C 2906.998 1981 2887.001 2171 2895.999 2180.001 C 2905 2189.003 2973 2193.999 3122.999 2197.999 C 3182.999 2200 3200.001 2196.999 3200.001 2186.003 Z" style=""/>
    </g>
    <path d="M1116.92 923.917C1166.35 967.891 1191.14 1034.23 1191.14 1122.94V1463.33H1029.46V1389.07C996.905 1444.46 936.366 1472.15 847.688 1472.15C801.904 1472.15 762.204 1464.39 728.589 1448.87C694.973 1433.35 669.267 1411.9 651.623 1384.51C633.826 1357.12 625.004 1326.08 625.004 1291.38C625.004 1236 645.842 1192.33 687.672 1160.53C729.349 1128.72 793.842 1112.9 880.999 1112.9H1018.35C1018.35 1075.16 1006.94 1046.25 983.976 1025.86C961.008 1005.47 926.783 995.432 880.847 995.432C849.057 995.432 817.875 1000.45 787.15 1010.34C756.424 1020.39 730.414 1033.78 708.967 1050.82L646.907 930.003C679.458 907.179 718.397 889.376 763.877 876.747C809.357 864.117 856.054 857.879 904.12 857.879C996.6 858.031 1067.48 879.942 1116.92 923.917ZM969.525 1335.21C992.341 1321.51 1008.62 1301.43 1018.35 1274.8V1213.78H899.709C828.827 1213.78 793.386 1237.06 793.386 1283.62C793.386 1305.84 802.056 1323.34 819.396 1336.27C836.736 1349.2 860.617 1355.6 890.886 1355.6C920.395 1355.75 946.709 1348.9 969.525 1335.21Z" fill="#45525B"/>
    <path d="M2692.75 1213.78H2241.75C2249.81 1250.76 2269.13 1279.97 2299.4 1301.43C2329.67 1322.88 2367.39 1333.53 2412.41 1333.53C2443.44 1333.53 2470.98 1328.97 2495.01 1319.69C2519.04 1310.4 2541.4 1295.8 2562.09 1275.86L2654.11 1375.68C2597.98 1440.04 2516 1472.15 2408.16 1472.15C2340.92 1472.15 2281.45 1459.06 2229.73 1432.74C2178.02 1406.57 2138.17 1370.05 2110.03 1323.49C2081.89 1276.93 2067.89 1224.13 2067.89 1164.94C2067.89 1106.51 2081.73 1053.86 2109.42 1007C2137.1 960.131 2175.13 923.46 2223.5 897.288C2271.87 871.117 2326.02 857.879 2385.8 857.879C2444.2 857.879 2496.99 870.508 2544.29 895.615C2591.6 920.721 2628.71 956.783 2655.63 1003.65C2682.56 1050.67 2696.09 1105.14 2696.09 1167.22C2695.94 1169.5 2694.88 1185.02 2692.75 1213.78ZM2288.14 1022.06C2261.52 1044.28 2245.25 1074.56 2239.32 1112.9H2533.03C2527.1 1075.16 2510.83 1045.04 2484.21 1022.52C2457.59 999.997 2425.04 988.737 2386.71 988.737C2347.62 988.737 2314.76 999.845 2288.14 1022.06Z" fill="#45525B"/>
  </g>
  <defs>
    <clipPath id="clip0">
      <rect width="5065" height="1472" fill="white"/>
    </clipPath>
  </defs>
</svg>